<svg width="19" height="19" viewBox="0 0 19 19" fill="none" xmlns="http://www.w3.org/2000/svg">
<path d="M14.4995 15.1891L15.1188 14.5824C17.9843 14.6747 18.0283 14.5757 18.1543 14.2852L18.9415 12.3954L19 12.2162L18.936 12.0595C18.9023 11.9767 18.7984 11.7297 17.0092 10.0475V9.1626C19.0736 7.2015 19.0296 7.10107 18.9119 6.81403L18.1281 4.9045C18.0104 4.61814 17.9657 4.50618 15.1209 4.58286L14.5015 3.95177C14.5655 3.02219 14.5329 2.08859 14.4045 1.16552L14.3247 0.987051L12.2781 0.104895C11.9767 -0.0308217 11.8707 -0.0796795 9.93835 1.99542L9.0699 1.98253C7.08044 -0.111573 6.98616 -0.0735724 6.68819 0.0451794L4.78544 0.803834C4.48747 0.922586 4.38218 0.964658 4.49779 3.8147L3.88327 4.41864C1.01916 4.32635 0.975118 4.42678 0.850561 4.71586L0.0619342 6.60639L0 6.78757L0.0646868 6.945C0.0984064 7.02643 0.198189 7.27072 1.99152 8.95496V9.83711C-0.0729444 11.7982 -0.0282144 11.8986 0.0901485 12.1864L0.873271 14.0979C0.99301 14.3904 1.03568 14.4942 3.87983 14.4209L4.49917 15.0554C4.43497 15.9836 4.46656 16.9157 4.59344 17.8376L4.67327 18.0174L6.73292 18.905C7.03227 19.0285 7.13618 19.0726 9.06302 17.005L9.93147 17.0158C11.9237 19.1126 12.0255 19.0719 12.3166 18.9559L14.2152 18.1993C14.5153 18.0819 14.6199 18.0405 14.4995 15.1891ZM6.3393 10.762C6.09917 10.1432 6.04973 9.46821 6.19718 8.82178C6.34463 8.17534 6.68241 7.58625 7.16813 7.12841C7.65385 6.67057 8.26587 6.36438 8.92741 6.24826C9.58894 6.13214 10.2705 6.21126 10.8866 6.4757C11.5027 6.74014 12.0259 7.17811 12.3905 7.73466C12.7551 8.29121 12.9449 8.94155 12.9361 9.60408C12.9273 10.2666 12.7203 10.9118 12.3409 11.4587C11.9616 12.0057 11.427 12.4299 10.8041 12.6783C9.95413 13.0061 9.00716 12.9884 8.17039 12.6293C7.33362 12.2701 6.67522 11.5987 6.3393 10.762Z" fill="white"/>
</svg>
