<svg width="204" height="43" viewBox="0 0 204 43" fill="none" xmlns="http://www.w3.org/2000/svg">
<path d="M0.828125 42V0.75H12.0078C15.0078 0.75 17.1875 1.48437 18.5469 2.95312C19.9219 4.40625 20.6094 6.8125 20.6094 10.1719V11.9766C20.6094 13.9141 20.2578 15.4844 19.5547 16.6875C18.8672 17.8906 17.8125 18.6797 16.3906 19.0547C18.25 19.5234 19.4922 20.625 20.1172 22.3594C20.7578 24.0781 21.0781 26.1797 21.0781 28.6641C21.0781 31.3359 20.8281 33.6719 20.3281 35.6719C19.8281 37.6719 18.9219 39.2266 17.6094 40.3359C16.2969 41.4453 14.4297 42 12.0078 42H0.828125ZM8.89062 16.2891H10.5781C11.3438 16.2891 11.8359 15.9922 12.0547 15.3984C12.2734 14.8047 12.3828 14.0938 12.3828 13.2656V9.11719C12.3828 7.78906 11.7969 7.125 10.625 7.125H8.89062V16.2891ZM9.71094 34.7344C11.8516 34.7344 12.9219 33.7188 12.9219 31.6875V26.5312C12.9219 25.3594 12.7422 24.4375 12.3828 23.7656C12.0391 23.0781 11.3828 22.7344 10.4141 22.7344H8.89062V34.6875C9.23438 34.7188 9.50781 34.7344 9.71094 34.7344ZM28.7891 42V28.4297L22.2031 0.75H30.3828L32.6797 14.7188L34.9766 0.75H43.1328L36.5703 28.4297V42H28.7891ZM48.7578 42V8.67188H43.8594V0.75H61.9062V8.67188H57.0078V42H48.7578ZM64.2031 42V0.75H80.7031V8.71875H72.5938V16.7578H80.375V24.5156H72.5938V33.9609H81.2422V42H64.2031ZM93.7812 42.375C90.0156 42.375 87.2969 41.4375 85.625 39.5625C83.9688 37.6875 83.1406 34.7031 83.1406 30.6094V26.5781H91.2969V31.7344C91.2969 32.6875 91.4375 33.4375 91.7188 33.9844C92.0156 34.5156 92.5234 34.7812 93.2422 34.7812C93.9922 34.7812 94.5078 34.5625 94.7891 34.125C95.0859 33.6875 95.2344 32.9688 95.2344 31.9688C95.2344 30.7031 95.1094 29.6484 94.8594 28.8047C94.6094 27.9453 94.1719 27.1328 93.5469 26.3672C92.9375 25.5859 92.0859 24.6797 90.9922 23.6484L87.2891 20.1328C84.5234 17.5234 83.1406 14.5391 83.1406 11.1797C83.1406 7.66406 83.9531 4.98438 85.5781 3.14062C87.2188 1.29687 89.5859 0.375 92.6797 0.375C96.4609 0.375 99.1406 1.38281 100.719 3.39844C102.312 5.41406 103.109 8.47656 103.109 12.5859H94.7188V9.75C94.7188 9.1875 94.5547 8.75 94.2266 8.4375C93.9141 8.125 93.4844 7.96875 92.9375 7.96875C92.2812 7.96875 91.7969 8.15625 91.4844 8.53125C91.1875 8.89062 91.0391 9.35938 91.0391 9.9375C91.0391 10.5156 91.1953 11.1406 91.5078 11.8125C91.8203 12.4844 92.4375 13.2578 93.3594 14.1328L98.1172 18.7031C99.0703 19.6094 99.9453 20.5703 100.742 21.5859C101.539 22.5859 102.18 23.7578 102.664 25.1016C103.148 26.4297 103.391 28.0547 103.391 29.9766C103.391 33.8516 102.672 36.8906 101.234 39.0938C99.8125 41.2812 97.3281 42.375 93.7812 42.375ZM116 42.375C112.703 42.375 110.18 41.3828 108.43 39.3984C106.695 37.3984 105.828 34.5156 105.828 30.75V11.1562C105.828 7.625 106.688 4.94531 108.406 3.11719C110.141 1.28906 112.672 0.375 116 0.375C119.328 0.375 121.852 1.28906 123.57 3.11719C125.305 4.94531 126.172 7.625 126.172 11.1562V30.75C126.172 34.5156 125.297 37.3984 123.547 39.3984C121.812 41.3828 119.297 42.375 116 42.375ZM116.07 34.7812C117.32 34.7812 117.945 33.5703 117.945 31.1484V11.0156C117.945 8.98438 117.336 7.96875 116.117 7.96875C114.742 7.96875 114.055 9.00781 114.055 11.0859V31.1953C114.055 32.4766 114.211 33.3984 114.523 33.9609C114.836 34.5078 115.352 34.7812 116.07 34.7812ZM139.109 42.375C136.125 42.375 133.719 41.4453 131.891 39.5859C130.078 37.7266 129.172 35.125 129.172 31.7812V12.75C129.172 8.75 129.961 5.6875 131.539 3.5625C133.133 1.4375 135.719 0.375 139.297 0.375C141.25 0.375 142.984 0.734375 144.5 1.45312C146.031 2.17188 147.234 3.25 148.109 4.6875C148.984 6.10938 149.422 7.90625 149.422 10.0781V17.2031H141.219V11.1094C141.219 9.875 141.062 9.04688 140.75 8.625C140.438 8.1875 139.953 7.96875 139.297 7.96875C138.531 7.96875 138.016 8.25 137.75 8.8125C137.484 9.35938 137.352 10.0938 137.352 11.0156V31.6641C137.352 32.8047 137.516 33.6094 137.844 34.0781C138.188 34.5469 138.672 34.7812 139.297 34.7812C140 34.7812 140.492 34.4922 140.773 33.9141C141.07 33.3359 141.219 32.5859 141.219 31.6641V24.2344H149.516V32.0391C149.516 35.6641 148.602 38.2969 146.773 39.9375C144.945 41.5625 142.391 42.375 139.109 42.375ZM151.906 42V0.75H159.875V42H151.906ZM162.031 42L166.016 0.75H180.008L183.922 42H176.117L175.531 35.3438H170.562L170.047 42H162.031ZM171.148 28.7578H174.898L173.094 7.78125H172.719L171.148 28.7578ZM186.453 42V0.75H194.703V34.9688H203.188V42H186.453Z" fill="white"/>
<path d="M-1 50.3906H203.703V52.7812H-1V50.3906Z" fill="white"/>
</svg>
