<svg width="68" height="60" viewBox="0 0 68 60" fill="none" xmlns="http://www.w3.org/2000/svg">
<path d="M3.36257 9.56217H15.8599L18.1355 3.01226C18.4416 2.13271 19.0137 1.37019 19.7726 0.830436C20.5315 0.290684 21.4395 0.000455319 22.3708 9.18953e-08H44.939C45.8753 -0.00018944 46.7881 0.292803 47.5493 0.837851C48.3105 1.3829 48.8819 2.15264 49.1834 3.03902L51.4036 9.56217H63.887C64.7785 9.56317 65.6332 9.91776 66.2635 10.5481C66.8939 11.1785 67.2485 12.0332 67.2495 12.9247V56.6375C67.2485 57.529 66.8939 58.3837 66.2635 59.014C65.6332 59.6444 64.7785 59.999 63.887 60H3.36257C2.47108 59.999 1.6164 59.6444 0.986023 59.014C0.355644 58.3837 0.00105286 57.529 5.34058e-05 56.6375V12.9247C0.00105286 12.0332 0.355644 11.1785 0.986023 10.5481C1.6164 9.91776 2.47108 9.56317 3.36257 9.56217ZM4.48341 55.5166H62.7652V14.0455H48.1928L44.939 4.48336H22.3708L19.0489 14.0455H4.48341V55.5166Z" fill="white"/>
<path d="M33.6242 17.408C36.7832 17.408 39.8712 18.3447 42.4978 20.0997C45.1243 21.8547 47.1715 24.3492 48.3804 27.2677C49.5893 30.1862 49.9056 33.3977 49.2893 36.4959C48.673 39.5942 47.1518 42.4401 44.9181 44.6738C42.6844 46.9076 39.8384 48.4287 36.7402 49.045C33.6419 49.6613 30.4305 49.345 27.512 48.1361C24.5935 46.9272 22.099 44.8801 20.344 42.2535C18.589 39.6269 17.6522 36.5389 17.6522 33.3799C17.657 29.1454 19.3414 25.0856 22.3356 22.0914C25.3299 19.0971 29.3897 17.4128 33.6242 17.408ZM33.6242 44.8686C35.8964 44.8686 38.1176 44.1948 40.0069 42.9324C41.8962 41.67 43.3688 39.8757 44.2383 37.7764C45.1078 35.6772 45.3354 33.3672 44.8921 31.1386C44.4488 28.91 43.3546 26.863 41.7479 25.2563C40.1412 23.6495 38.0941 22.5554 35.8655 22.1121C33.637 21.6688 31.327 21.8963 29.2277 22.7658C27.1284 23.6354 25.3342 25.1079 24.0718 26.9972C22.8094 28.8865 22.1356 31.1077 22.1356 33.3799C22.139 36.4258 23.3506 39.346 25.5043 41.4998C27.6581 43.6536 30.5783 44.8651 33.6242 44.8686Z" fill="white"/>
</svg>
