<svg width="19" height="19" viewBox="0 0 19 19" fill="none" xmlns="http://www.w3.org/2000/svg">
<path d="M10.206 0.310908C10.117 0.212982 10.0085 0.13474 9.88745 0.0811986C9.76643 0.0276575 9.63556 0 9.50322 0C9.37088 0 9.24001 0.0276575 9.11899 0.0811986C8.99797 0.13474 8.88947 0.212982 8.80046 0.310908L0.253383 9.8074C0.127349 9.94328 0.0438312 10.1131 0.013125 10.2958C-0.0175813 10.4786 0.00586599 10.6664 0.0805764 10.836C0.155287 11.0056 0.277995 11.1496 0.433576 11.2504C0.589156 11.3511 0.770809 11.4041 0.956143 11.4028H2.85549V18.0504C2.85549 18.3022 2.95555 18.5438 3.13365 18.7219C3.31175 18.8999 3.5533 19 3.80517 19H15.2013C15.4531 19 15.6947 18.8999 15.8728 18.7219C16.0509 18.5438 16.1509 18.3022 16.1509 18.0504V11.4028H18.0503C18.3022 11.4028 18.5437 11.3028 18.7218 11.1247C18.8999 10.9466 19 10.705 19 10.4532C19.0017 10.2145 18.9136 9.98398 18.7531 9.8074L10.206 0.310908Z" fill="#0068DF"/>
</svg>
