<svg width="20" height="20" viewBox="0 0 20 20" fill="none" xmlns="http://www.w3.org/2000/svg">
<path fill-rule="evenodd" clip-rule="evenodd" d="M7.89215 0.122687C8.32653 -0.00762047 8.78536 -0.0345766 9.23201 0.04397C9.67866 0.122517 10.1008 0.30439 10.4646 0.575074C10.8285 0.845758 11.124 1.19775 11.3277 1.60297C11.5313 2.00818 11.6374 2.45539 11.6375 2.90889V17.0911C11.6374 17.5446 11.5313 17.9918 11.3277 18.397C11.124 18.8022 10.8285 19.1542 10.4646 19.4249C10.1008 19.6956 9.67866 19.8775 9.23201 19.956C8.78536 20.0346 8.32653 20.0076 7.89215 19.8773L2.07341 18.1317C1.47418 17.9519 0.948852 17.5838 0.575359 17.0819C0.201866 16.58 0.000102593 15.9711 0 15.3455V4.65452C0.000102593 4.0289 0.201866 3.41998 0.575359 2.91809C0.948852 2.4162 1.47418 2.04807 2.07341 1.86831L7.89215 0.122687ZM12.6073 2.24168C12.6073 1.98447 12.7094 1.7378 12.8913 1.55593C13.0732 1.37406 13.3199 1.27189 13.5771 1.27189H16.4864C17.258 1.27189 17.9981 1.57841 18.5437 2.12402C19.0893 2.66964 19.3958 3.40965 19.3958 4.18126V5.15105C19.3958 5.40825 19.2936 5.65492 19.1118 5.83679C18.9299 6.01866 18.6832 6.12084 18.426 6.12084C18.1688 6.12084 17.9221 6.01866 17.7403 5.83679C17.5584 5.65492 17.4562 5.40825 17.4562 5.15105V4.18126C17.4562 3.92405 17.3541 3.67738 17.1722 3.49551C16.9903 3.31364 16.7436 3.21147 16.4864 3.21147H13.5771C13.3199 3.21147 13.0732 3.10929 12.8913 2.92742C12.7094 2.74555 12.6073 2.49888 12.6073 2.24168ZM18.426 13.8792C18.6832 13.8792 18.9299 13.9813 19.1118 14.1632C19.2936 14.3451 19.3958 14.5917 19.3958 14.849V15.8187C19.3958 16.5904 19.0893 17.3304 18.5437 17.876C17.9981 18.4216 17.258 18.7281 16.4864 18.7281H13.5771C13.3199 18.7281 13.0732 18.6259 12.8913 18.4441C12.7094 18.2622 12.6073 18.0155 12.6073 17.7583C12.6073 17.5011 12.7094 17.2544 12.8913 17.0726C13.0732 16.8907 13.3199 16.7885 13.5771 16.7885H16.4864C16.7436 16.7885 16.9903 16.6864 17.1722 16.5045C17.3541 16.3226 17.4562 16.0759 17.4562 15.8187V14.849C17.4562 14.5917 17.5584 14.3451 17.7403 14.1632C17.9221 13.9813 18.1688 13.8792 18.426 13.8792ZM6.78853 9.03021C6.53133 9.03021 6.28466 9.13238 6.10279 9.31425C5.92092 9.49613 5.81874 9.74279 5.81874 10C5.81874 10.2572 5.92092 10.5039 6.10279 10.6857C6.28466 10.8676 6.53133 10.9698 6.78853 10.9698H6.7895C7.04671 10.9698 7.29338 10.8676 7.47525 10.6857C7.65712 10.5039 7.75929 10.2572 7.75929 10C7.75929 9.74279 7.65712 9.49613 7.47525 9.31425C7.29338 9.13238 7.04671 9.03021 6.7895 9.03021H6.78853Z" fill="#0068DF"/>
</svg>
